<svg version="1.0" xmlns="http://www.w3.org/2000/svg"
 width="512.000000pt" height="504.000000pt" viewBox="0 0 512.000000 504.000000"
 preserveAspectRatio="xMidYMid meet">
<metadata>
Created by potrace 1.16, written by Peter Selinger 2001-2019
</metadata>
<g transform="translate(0.000000,504.000000) scale(0.100000,-0.100000)"
fill="#000000" stroke="none">
<path d="M0 2520 l0 -2520 1430 0 1430 0 0 21 c0 23 101 134 141 154 49 26 68
181 29 240 -29 44 -24 49 10 13 27 -28 30 -37 30 -100 0 -107 -16 -145 -72
-174 -63 -32 -91 -69 -82 -108 5 -25 4 -29 -7 -18 -20 18 -39 15 -39 -8 0 -16
7 -20 31 -20 26 0 51 21 177 149 81 82 161 164 178 182 17 19 48 49 68 67 20
19 36 42 36 53 0 30 1 33 13 49 31 39 37 64 36 142 -2 112 -9 142 -36 146 -47
7 -53 28 -42 146 11 118 32 172 79 206 15 11 29 17 32 15 3 -3 17 9 32 26 24
27 32 30 61 25 60 -12 119 -44 173 -94 28 -27 52 -54 52 -60 0 -6 18 -31 40
-57 l39 -46 27 31 c15 16 32 40 38 52 6 13 22 28 34 33 13 6 25 20 29 33 3 12
9 22 13 22 4 0 10 11 12 25 6 30 7 30 -21 5 -25 -21 -50 -20 -129 6 -23 8 -47
14 -53 14 -5 0 -29 9 -51 20 -23 11 -47 20 -54 20 -6 0 -31 9 -55 20 -24 11
-37 20 -30 20 8 0 -6 13 -32 30 -66 41 -74 65 -47 124 11 26 19 55 16 64 -3 9
0 40 7 67 13 47 15 50 43 46 27 -3 28 -2 13 15 -9 11 -22 43 -30 72 -15 60 -8
72 43 72 33 0 63 39 53 69 -8 27 19 34 133 34 92 1 120 10 60 20 -18 3 -73 9
-121 13 -58 4 -93 12 -103 22 -14 13 -12 16 23 29 21 8 47 17 58 20 28 8 63
46 67 73 3 20 -5 26 -62 46 -36 13 -72 23 -81 24 -9 0 -24 9 -34 20 -18 20
-17 20 26 20 58 0 78 12 59 35 -11 13 -11 18 -1 24 8 6 3 10 -16 14 -16 3 -40
15 -53 25 l-25 20 33 28 c44 39 43 68 -5 80 -43 11 -45 22 -11 92 27 58 16
115 -25 120 -21 3 -29 -2 -37 -22 -14 -38 -27 -32 -33 17 -3 23 -8 54 -12 68
-6 22 0 33 35 65 39 37 41 41 29 66 -9 21 -9 37 0 74 11 43 9 65 -5 51 -5 -4
-21 -113 -24 -159 0 -11 -56 -38 -78 -38 -10 0 -27 9 -36 19 -18 20 -18 20
-40 -1 -35 -33 -59 -38 -71 -14 -11 21 -38 24 -115 14 -27 -3 -30 8 -16 68 l7
31 -75 7 c-84 8 -75 11 -175 -81 -61 -57 -84 -64 -101 -32 -24 44 8 291 51
394 16 39 29 87 29 108 0 42 20 58 47 36 12 -10 15 -10 9 -1 -11 19 3 35 19
22 10 -8 30 -8 74 1 70 13 140 6 173 -20 13 -10 44 -28 71 -41 26 -13 47 -27
47 -31 0 -4 10 -11 21 -14 12 -4 31 -18 43 -31 24 -27 40 -31 81 -20 33 8 86
72 112 134 8 20 19 39 23 42 5 3 11 22 15 43 8 43 -6 49 -40 17 -12 -11 -43
-24 -69 -29 -27 -5 -54 -17 -64 -29 -15 -18 -19 -19 -56 -5 -23 7 -52 25 -64
39 -29 31 -46 27 -50 -12 -5 -44 -16 -48 -58 -20 -22 14 -52 26 -69 26 -74 4
-114 2 -161 -5 -49 -7 -52 -6 -72 23 -12 16 -22 37 -22 46 0 10 -11 19 -30 23
-16 3 -30 8 -30 12 0 4 -13 14 -29 24 -23 14 -54 17 -155 17 l-126 0 -11 -27
c-7 -18 -7 -35 0 -52 29 -72 29 -214 2 -196 -16 9 -51 85 -51 110 0 14 -4 25
-10 25 -13 0 -13 -44 0 -150 25 -205 128 -397 249 -462 31 -17 42 -38 19 -38
-7 0 -38 -12 -68 -26 -77 -36 -125 -35 -195 5 -42 24 -60 29 -65 21 -14 -22 1
-46 65 -110 l63 -62 17 26 c15 23 24 26 74 26 54 0 111 -16 111 -32 0 -10 32
3 49 19 21 21 46 11 49 -19 2 -16 11 -30 23 -33 10 -4 19 -14 20 -23 1 -9 2
-26 3 -37 0 -11 -3 -29 -8 -40 -4 -11 15 5 43 36 43 49 57 58 93 62 101 12
175 41 181 71 4 20 4 20 6 1 1 -14 12 -25 34 -33 54 -19 77 -15 112 22 30 32
34 34 54 20 20 -15 21 -14 21 22 0 56 15 30 34 -61 10 -44 22 -93 26 -110 5
-16 5 -63 2 -104 l-7 -75 -32 32 c-32 33 -53 41 -53 21 0 -6 9 -18 19 -27 35
-31 36 -59 2 -93 -27 -27 -37 -30 -83 -28 -29 1 -59 1 -65 0 -20 -2 -15 -21 5
-21 18 0 62 -31 62 -43 0 -3 -13 -8 -30 -12 -21 -5 -35 -2 -46 9 -8 9 -20 16
-25 16 -5 0 -9 4 -9 10 0 11 -67 102 -83 111 -5 4 -7 23 -4 43 l6 36 -38 0
c-22 0 -44 -6 -51 -15 -16 -19 -57 -19 -90 0 -14 8 -35 14 -46 15 -12 0 -27 7
-35 16 -12 14 -14 14 -21 -5 -8 -22 -42 -29 -53 -11 -3 6 -38 10 -77 10 -80 0
-134 -24 -144 -66 -5 -21 -12 -24 -55 -24 -32 0 -49 4 -49 13 0 8 -2 9 -8 1
-4 -6 -22 -15 -40 -19 -18 -4 -36 -13 -39 -21 -7 -20 -57 -17 -75 4 -9 9 -18
29 -20 44 -4 22 0 29 23 38 15 7 30 22 33 35 3 13 13 30 21 38 8 8 17 45 21
81 8 82 -7 87 -51 18 -35 -55 -103 -97 -140 -88 -33 8 -31 19 7 67 26 32 29
42 19 52 -11 9 -14 9 -18 0 -3 -7 -13 -13 -24 -13 -17 0 -19 8 -19 63 0 35 6
74 15 91 8 15 15 40 14 55 0 26 0 26 -11 3 -8 -15 -17 -20 -29 -17 -14 5 -18
-2 -24 -35 -8 -47 -16 -50 -42 -14 -17 23 -22 24 -45 14 -14 -7 -31 -23 -37
-36 -9 -21 -6 -29 19 -58 17 -18 30 -36 30 -40 0 -16 -36 -3 -67 24 -41 36
-53 38 -53 7 0 -33 16 -51 90 -99 72 -48 89 -81 48 -97 -49 -19 -131 -41 -157
-41 -34 -1 -78 -25 -62 -34 18 -12 13 -44 -10 -60 -21 -14 -20 -15 25 -43 30
-19 43 -32 36 -39 -6 -6 -1 -26 15 -57 20 -37 24 -55 19 -87 -4 -25 -2 -45 5
-54 18 -21 -51 -57 -121 -64 -51 -4 -60 -8 -80 -38 -36 -52 -72 -59 -50 -9 15
32 15 73 1 114 -12 34 -24 40 -33 16 -3 -10 -19 -15 -45 -15 -38 0 -40 2 -47
35 -5 27 0 45 20 81 14 26 26 56 26 68 0 12 4 26 10 32 5 5 10 32 11 59 1 28
6 55 11 62 7 8 5 18 -6 28 -18 19 -21 57 -6 86 7 13 7 25 1 38 -6 10 -14 45
-17 77 -5 44 -14 67 -35 92 -16 18 -29 37 -29 42 0 4 -3 15 -6 24 -4 10 -1 16
8 16 17 0 39 57 48 123 6 46 5 48 -14 43 -12 -3 -34 -6 -49 -6 -19 0 -27 -4
-24 -12 5 -16 -20 -68 -33 -68 -6 0 -10 9 -10 20 0 11 7 20 15 20 8 0 15 9 15
19 0 16 -9 21 -47 26 -27 4 -73 18 -103 30 -30 13 -83 26 -117 30 -53 5 -64 3
-80 -14 -13 -14 -23 -17 -33 -11 -34 22 -160 -1 -160 -29 0 -11 27 -4 47 11 7
6 20 -3 39 -27 32 -43 25 -68 -22 -73 -16 -2 -31 -7 -34 -12 -3 -4 -17 -6 -31
-3 -26 5 -26 6 -13 31 12 24 12 28 -3 40 -15 10 -15 14 -4 21 25 16 -4 18 -39
3 -34 -15 -35 -15 -10 -22 31 -7 33 -34 3 -38 -13 -2 -23 2 -23 8 0 22 -65 3
-99 -28 -31 -28 -61 -33 -61 -11 0 17 -40 9 -52 -11 -8 -12 -24 -20 -40 -20
-16 0 -28 -4 -28 -10 0 -5 11 -10 25 -10 14 0 42 -7 62 -15 46 -20 53 -19 53
5 0 12 5 17 14 14 17 -7 83 36 89 59 7 24 37 22 37 -3 0 -11 9 -25 20 -32 30
-19 24 -42 -15 -69 -53 -36 -75 -81 -88 -181 -9 -69 -8 -98 2 -140 25 -97 67
-169 147 -248 l74 -76 -15 -31 c-14 -29 -14 -34 3 -64 18 -32 53 -49 169 -83
23 -6 45 -15 49 -19 4 -4 17 -7 28 -7 14 0 38 -22 70 -60 72 -90 182 -135 255
-104 39 16 87 18 96 4 3 -5 26 -10 50 -10 76 0 103 -23 41 -34 -32 -6 -61 -28
-98 -74 -14 -17 -29 -22 -66 -22 -56 0 -82 20 -82 63 0 33 -4 33 -55 2 -23
-15 -55 -25 -77 -25 -44 0 -91 -16 -84 -29 4 -5 -15 -31 -41 -57 -45 -45 -48
-46 -51 -24 -2 13 -19 46 -38 73 -19 28 -34 57 -32 66 3 20 -51 75 -75 76 -11
1 -22 6 -25 11 -4 5 -35 10 -70 11 -39 1 -74 9 -93 20 l-31 18 -31 -36 c-51
-57 -83 -73 -131 -64 -65 12 -166 5 -200 -13 -47 -24 -187 -23 -215 2 -21 19
-21 19 -21 0 -1 -28 -13 -4 -40 76 -12 36 -30 74 -41 86 -13 14 -19 34 -18 65
1 24 3 36 6 27 7 -26 16 -22 32 13 10 24 11 33 2 42 -10 9 -15 8 -25 -6 -13
-16 -14 -16 -20 5 -3 13 -6 34 -6 48 0 16 -14 37 -40 61 l-40 37 0 127 0 128
39 51 c21 28 48 69 59 91 11 22 30 49 42 60 47 42 183 115 216 115 11 0 48 24
82 53 63 55 135 89 337 162 232 84 249 88 382 83 97 -3 125 -8 159 -26 45 -23
156 -39 198 -28 39 10 86 80 86 128 0 23 8 51 19 66 10 15 26 44 34 64 36 86
268 288 331 288 15 0 185 124 233 169 25 24 12 291 -18 396 -18 63 -23 106
-23 200 -1 118 0 121 38 205 21 47 44 105 52 129 7 24 30 61 49 82 20 22 35
50 35 63 0 14 6 31 14 39 8 8 25 33 38 55 25 43 152 152 179 152 23 0 106 46
132 73 12 13 49 34 82 48 58 23 68 24 325 24 301 0 280 5 403 -97 32 -27 76
-57 97 -68 21 -11 40 -23 42 -28 1 -5 33 -23 69 -40 75 -36 133 -93 148 -147
5 -19 30 -71 55 -115 25 -43 46 -83 46 -87 0 -5 20 -29 45 -53 l45 -44 0 -197
c0 -179 -2 -197 -19 -213 -10 -9 -21 -37 -24 -61 -4 -27 -20 -64 -41 -93 -18
-27 -37 -62 -40 -78 -4 -17 -27 -55 -52 -85 -25 -29 -54 -71 -65 -91 -10 -21
-39 -52 -64 -70 -24 -18 -49 -46 -56 -61 -7 -16 -12 -73 -12 -128 l-1 -99 61
-63 c55 -56 123 -170 172 -287 6 -14 15 -32 20 -40 5 -8 30 -58 55 -110 46
-96 65 -177 66 -280 0 -46 56 -247 110 -395 16 -44 38 -116 50 -159 12 -44 27
-91 35 -105 7 -14 16 -34 19 -43 8 -26 35 -22 42 7 6 24 95 115 113 115 5 0
35 39 66 86 32 47 72 94 89 104 84 50 113 80 135 140 30 82 59 103 161 119 68
10 85 10 92 -1 5 -7 7 -56 4 -108 -3 -52 -6 -154 -6 -227 l0 -131 -44 -26
c-52 -31 -139 -123 -168 -179 -20 -40 -105 -160 -130 -185 -59 -57 -148 -115
-148 -96 0 7 58 55 92 77 37 22 77 67 78 86 0 8 13 26 29 40 15 14 36 44 47
66 10 22 35 60 56 84 21 25 37 50 34 58 -3 7 9 19 29 29 19 9 32 21 29 28 -3
7 12 28 32 45 29 26 38 42 42 76 5 48 -3 95 -17 95 -5 0 -14 -12 -20 -27 -14
-34 -46 -71 -151 -181 -44 -45 -86 -82 -93 -82 -18 -1 -57 -36 -57 -52 0 -7
-18 -26 -40 -42 -22 -17 -40 -36 -40 -43 0 -7 -6 -13 -13 -13 -20 0 -65 -51
-72 -82 -4 -16 -11 -26 -15 -23 -14 9 -190 -173 -190 -196 0 -13 -10 -24 -103
-121 -42 -44 -77 -84 -77 -89 0 -5 -12 -15 -27 -23 -16 -8 -47 -32 -69 -54
-23 -22 -45 -41 -50 -43 -15 -7 -74 -96 -74 -113 0 -9 -4 -16 -10 -16 -16 0
-311 -303 -330 -340 -10 -20 -46 -60 -79 -90 -34 -30 -76 -77 -94 -104 -58
-89 -63 -95 -90 -116 -15 -12 -27 -26 -27 -32 0 -6 -16 -31 -36 -54 l-35 -44
90 0 89 0 21 34 c12 19 44 49 72 67 28 18 58 43 66 56 9 13 25 28 37 34 12 6
-23 -32 -76 -84 -54 -51 -98 -97 -98 -100 0 -4 380 -7 845 -7 l845 0 0 2520 0
2520 -2560 0 -2560 0 0 -2520z m1355 231 c18 -8 18 -10 -10 -21 -63 -26 -71
-32 -92 -70 -28 -47 -31 -143 -7 -205 8 -22 17 -48 21 -57 3 -10 9 -18 14 -18
5 0 15 -12 22 -27 6 -16 17 -34 24 -41 7 -7 13 -18 13 -23 0 -38 -78 50 -119
135 -50 102 -62 179 -41 258 16 58 110 95 175 69z m1045 -776 c10 -12 10 -19
2 -27 -15 -15 -15 -28 -2 -28 5 0 12 11 16 25 5 20 12 25 40 25 25 0 39 -7 55
-29 21 -29 25 -30 95 -28 62 2 77 -1 104 -22 23 -16 40 -22 60 -17 45 8 130
-5 130 -20 0 -8 6 -14 14 -14 28 0 46 12 46 31 0 22 11 23 57 7 21 -8 36 -21
39 -35 4 -13 16 -30 27 -38 15 -11 18 -18 10 -26 -13 -13 -133 -16 -185 -5
l-38 8 0 -35 c0 -59 -6 -66 -47 -54 -32 10 -37 9 -53 -11 -10 -12 -25 -22 -33
-22 -23 0 -55 51 -63 100 -10 63 -32 80 -103 80 -82 0 -91 5 -91 50 0 31 -4
39 -22 44 -16 4 -28 0 -40 -14 -21 -26 -29 -25 -61 8 -26 27 -25 44 3 55 23 9
27 8 40 -8z m987 -16 c23 -38 11 -59 -32 -59 -20 0 -52 -7 -72 -15 -19 -8 -53
-15 -73 -15 -58 0 -71 -8 -64 -37 11 -41 -28 -25 -40 16 -8 28 -7 36 9 47 10
8 33 14 51 14 17 0 43 9 57 20 14 11 32 20 41 20 8 0 30 9 48 20 40 25 55 23
75 -11z m42 -154 c59 -68 25 -125 -75 -125 -42 0 -59 -5 -84 -27 -30 -25 -33
-26 -45 -9 -19 25 -30 133 -16 150 7 8 42 17 80 21 37 4 74 11 82 16 21 13 24
12 58 -26z m-459 -127 c0 -49 -24 -153 -41 -173 -10 -14 -55 -159 -63 -205
-16 -97 -64 -242 -85 -254 -12 -8 -21 30 -10 41 10 10 12 55 5 132 -3 35 0 62
9 75 7 12 18 47 24 78 6 32 17 70 25 86 8 16 22 59 30 96 28 118 71 197 98
180 5 -3 8 -28 8 -56z m120 9 c49 -17 60 -26 60 -46 0 -9 11 -27 25 -39 20
-18 23 -26 15 -41 -10 -19 -59 -41 -89 -41 -41 1 -81 65 -81 129 0 55 9 60 70
38z m-491 -164 c2 -1 -4 -14 -13 -28 -20 -31 -46 -110 -46 -142 0 -12 6 -26
13 -30 6 -4 18 -16 26 -26 12 -15 11 -20 -4 -37 -10 -11 -29 -20 -41 -20 -19
0 -23 5 -21 23 2 20 -2 22 -40 20 -35 -1 -42 2 -47 20 -10 39 -6 56 15 62 13
4 30 28 46 63 58 135 49 123 80 110 16 -7 30 -13 32 -15z m-1067 -82 c29 -10
73 -21 96 -24 82 -10 114 -67 92 -162 -20 -86 -27 -145 -19 -150 12 -8 19 -78
11 -114 -11 -52 -35 -61 -70 -28 -43 41 -106 31 -68 -12 9 -10 16 -27 16 -39
0 -12 10 -42 22 -66 l22 -45 -42 -39 c-36 -34 -43 -37 -54 -24 -7 8 -13 26
-13 38 0 30 -19 32 -23 2 -2 -13 -8 -27 -12 -33 -10 -12 -1 -65 11 -65 5 0 9
-11 9 -25 0 -16 -6 -25 -15 -25 -8 0 -15 -7 -15 -15 0 -8 -4 -15 -10 -15 -5 0
-10 -7 -10 -15 0 -24 -41 -38 -73 -26 -15 6 -27 15 -27 20 0 5 -10 13 -22 17
-28 9 -33 7 -33 -8 -2 -31 -79 25 -96 69 -5 14 -14 21 -23 17 -12 -5 -15 2
-12 33 3 26 9 39 21 41 25 5 10 50 -28 84 -35 30 -43 33 -52 18 -11 -17 -26
-11 -57 22 -29 31 -34 33 -93 30 -38 -2 -65 1 -69 7 -4 6 -18 11 -31 11 -14 0
-60 18 -103 40 -44 23 -83 40 -88 39 -32 -6 -54 3 -54 21 0 25 -3 25 -70 -1
-122 -46 -124 -46 -114 23 10 65 37 95 97 112 68 20 567 25 611 7 36 -14 46
-7 82 62 14 29 42 69 60 90 19 20 34 47 34 60 0 12 14 37 31 55 26 28 37 32
79 32 27 0 73 -9 102 -19z m2972 -212 c-43 -65 -68 -147 -55 -182 12 -32 50
-67 72 -67 9 0 34 -13 55 -30 22 -16 57 -44 80 -61 23 -17 62 -39 88 -48 43
-14 52 -24 89 -86 26 -42 57 -80 82 -96 46 -31 54 -57 54 -179 1 -87 -7 -129
-20 -108 -5 7 -9 26 -9 41 0 16 -4 26 -9 23 -5 -3 -11 1 -15 9 -4 10 -20 15
-53 15 -40 0 -54 5 -80 31 -18 16 -33 34 -33 40 0 16 -57 10 -64 -7 -5 -14
-17 -16 -69 -12 -69 6 -107 23 -107 49 0 17 -9 22 -113 59 -41 16 -61 30 -72
50 -9 17 -31 34 -57 44 -41 17 -42 17 -58 -4 -13 -17 -18 -19 -33 -8 -26 20
-24 112 3 167 27 55 43 71 68 71 38 0 52 11 52 42 0 31 25 88 39 88 11 0 31
-55 31 -85 0 -33 17 -43 95 -55 37 -6 72 -13 75 -15 4 -3 8 7 8 20 0 14 -6 25
-12 26 -60 4 -116 59 -116 114 0 21 -5 35 -12 35 -9 0 -10 2 -2 8 6 4 24 31
40 61 24 44 74 101 89 101 2 0 -12 -23 -31 -51z m-2474 -80 c19 -11 26 -17 15
-14 -11 4 -33 9 -48 12 l-29 6 4 -200 c3 -216 2 -220 -51 -248 -14 -7 -78 -64
-141 -127 -104 -101 -142 -149 -175 -213 -10 -18 -22 -20 -159 -23 -137 -2
-153 -1 -210 22 -33 13 -90 30 -126 36 -36 6 -103 22 -150 35 -47 13 -97 26
-112 29 -15 3 -55 29 -90 56 -77 61 -232 214 -260 255 -11 17 22 -11 73 -62
185 -181 249 -228 330 -243 35 -6 76 -18 91 -26 15 -8 68 -21 117 -28 59 -9
106 -23 137 -40 44 -24 54 -26 183 -26 l137 0 41 63 c37 55 95 122 134 153 8
6 28 26 45 45 32 35 89 86 144 128 31 23 31 25 27 95 -3 39 -8 83 -12 99 -4
15 -4 74 0 132 7 99 8 105 28 105 12 -1 38 -10 57 -21z"/>
<path d="M4560 901 c0 -4 14 -19 32 -32 57 -43 172 -140 205 -173 17 -17 48
-44 68 -60 21 -17 44 -45 53 -63 19 -40 32 -42 32 -5 0 34 -9 47 -37 56 -11 4
-38 31 -59 61 -20 30 -43 55 -51 55 -7 0 -13 9 -13 20 0 28 -48 72 -71 65 -12
-4 -29 5 -51 29 -40 42 -108 72 -108 47z"/>
<path d="M2970 5003 c-8 -3 -28 -11 -45 -18 -16 -7 -46 -19 -65 -26 -19 -7
-55 -28 -79 -47 -51 -38 -85 -57 -123 -66 -32 -7 -143 -115 -173 -166 -11 -19
-31 -55 -43 -80 -13 -25 -32 -54 -42 -65 -10 -11 -24 -42 -31 -70 -7 -27 -23
-70 -36 -94 -13 -24 -23 -57 -23 -73 0 -26 -29 -73 -31 -51 0 4 -4 -1 -9 -12
-11 -27 -12 -112 -1 -133 5 -9 11 -44 14 -78 6 -56 29 -134 48 -160 5 -6 12
-28 17 -50 6 -32 14 -42 45 -57 23 -12 39 -28 43 -43 4 -14 11 -23 17 -21 16
5 25 43 26 115 1 85 17 140 51 180 42 50 142 72 178 38 10 -9 26 -16 35 -16
15 0 15 -4 -3 -35 -28 -50 -26 -58 25 -83 56 -27 125 -89 125 -112 0 -44 92
-63 153 -31 26 13 49 18 72 14 25 -4 42 1 71 21 21 14 44 26 50 26 19 0 42
-34 49 -72 9 -46 38 -76 59 -59 11 9 18 7 32 -11 11 -13 30 -31 44 -41 26 -18
75 -23 84 -8 13 20 92 20 155 -1 l63 -21 -7 -56 c-14 -116 -12 -136 12 -139
19 -3 21 -6 11 -21 -7 -11 -8 -26 -3 -37 8 -16 10 -14 13 13 2 25 19 48 68 95
35 34 64 71 64 81 0 19 67 102 83 102 11 0 27 27 27 48 0 18 27 62 66 107 12
14 24 41 27 60 2 19 12 60 22 90 26 82 31 171 11 182 -18 10 -22 54 -4 60 7 3
11 29 10 72 -1 60 -5 72 -34 109 -18 22 -48 70 -66 106 -19 37 -40 73 -48 82
-8 9 -21 36 -29 60 -23 66 -89 134 -153 159 -64 24 -160 88 -211 139 -61 63
-87 74 -196 84 -125 11 -395 18 -415 10z"/>
<path d="M3010 3535 c-6 -8 -10 -22 -8 -32 5 -26 66 -63 103 -63 18 0 52 -9
76 -20 24 -11 56 -20 70 -20 30 0 72 41 67 66 -8 41 -162 85 -232 65 -30 -8
-38 -7 -43 5 -7 18 -17 18 -33 -1z"/>
<path d="M4595 1813 c-55 -14 -144 -89 -166 -140 -13 -32 -24 -43 -40 -43 -31
0 -74 49 -70 81 1 14 -5 31 -13 39 -14 11 -16 9 -16 -14 0 -14 -4 -26 -9 -26
-13 0 -21 -39 -10 -46 6 -3 7 -13 4 -23 -3 -12 4 -20 25 -28 21 -8 36 -25 50
-55 11 -24 20 -38 20 -33 0 6 23 28 50 48 28 21 50 43 50 49 0 6 15 24 33 39
29 25 31 29 19 50 -12 18 -12 23 0 30 7 5 17 9 21 9 5 0 6 4 2 9 -7 12 10 22
48 30 17 4 32 12 35 19 4 12 0 13 -33 5z"/>
<path d="M4171 1546 c-37 -39 -36 -65 4 -86 20 -11 25 -21 25 -52 0 -30 4 -38
18 -38 27 1 122 97 122 125 0 3 -11 5 -24 5 -27 0 -42 15 -26 25 20 12 10 31
-23 43 -49 18 -60 15 -96 -22z"/>
<path d="M3436 983 c-26 -76 -31 -148 -13 -176 26 -40 30 -107 12 -196 -9 -46
-14 -85 -12 -88 6 -5 43 30 137 130 63 67 63 67 31 61 -33 -7 -50 5 -51 32 0
17 75 22 89 7 6 -7 18 -10 26 -7 25 10 27 41 5 83 -11 22 -20 51 -20 64 0 32
-20 87 -31 87 -5 0 -9 -38 -9 -84 0 -47 -3 -87 -7 -89 -15 -9 -55 13 -60 33
-3 11 -9 18 -13 15 -4 -3 -13 17 -19 43 -37 147 -42 153 -65 85z"/>
</g>
</svg>
